<svg width="20" height="20" viewBox="0 0 20 20" fill="none" xmlns="http://www.w3.org/2000/svg">
<path d="M9.86027 9.5835C8.43919 9.5835 7.18748 8.68876 6.71197 7.37244C6.55562 6.93963 6.77937 6.46189 7.21173 6.30538C7.64409 6.14887 8.12133 6.37286 8.27768 6.80566C8.51657 7.46696 9.14592 7.91683 9.86027 7.91683C10.576 7.91683 11.2064 7.46516 11.4442 6.80196C11.5995 6.36878 12.0762 6.14367 12.509 6.29916C12.9417 6.45465 13.1666 6.93185 13.0112 7.36503C12.5379 8.68519 11.2842 9.5835 9.86027 9.5835Z" fill="black" fill-opacity="0.8"/>
<path d="M6.69741 2.0835H13.3024C15.0197 2.0835 16.4554 3.39095 16.6174 5.10245L17.4849 14.2691C17.6584 16.1019 16.3148 17.7283 14.4839 17.902C14.3796 17.9119 14.2747 17.9168 14.1699 17.9168H5.82988C3.99084 17.9168 2.5 16.4244 2.5 14.5835C2.5 14.4785 2.50495 14.3736 2.51484 14.2691L3.38237 5.10245C3.54434 3.39095 4.98002 2.0835 6.69741 2.0835ZM6.51681 3.75016C5.65723 3.75016 4.93896 4.4052 4.85907 5.26195L4.0044 14.4286C3.9996 14.4801 3.9972 14.5318 3.9972 14.5835C3.9972 15.504 4.74262 16.2502 5.66214 16.2502H14.3376C14.3893 16.2502 14.4409 16.2478 14.4924 16.243C15.4079 16.1574 16.0808 15.3451 15.9954 14.4286L15.1407 5.26195C15.0608 4.4052 14.3425 3.75016 13.483 3.75016H6.51681Z" fill="black" fill-opacity="0.8"/>
</svg>
