<svg width="28" height="28" viewBox="0 0 28 28" fill="none" xmlns="http://www.w3.org/2000/svg">
<path d="M5.5689 19.2243C5.87582 19.7184 5.95597 20.3317 5.76646 20.9002L4.82959 23.7108C5.15454 23.6484 5.51884 23.5795 5.88965 23.5115C6.42844 23.4127 6.9914 23.3138 7.47155 23.239C7.89528 23.1729 8.40672 23.0999 8.74967 23.0999C9.24694 23.0999 9.80998 23.252 10.173 23.35L10.2666 23.3752C11.1358 23.607 12.3015 23.9166 13.9997 23.9166C19.4524 23.9166 23.9163 19.4741 23.9163 13.9999C23.9163 8.5231 19.4765 4.08325 13.9997 4.08325C8.52285 4.08325 4.08301 8.5231 4.08301 13.9999C4.08301 15.9204 4.62717 17.7084 5.5689 19.2243ZM3.92819 25.6664C3.14435 25.6512 2.59554 24.879 2.84487 24.131L4.10627 20.3468C4.12845 20.2803 4.11941 20.2073 4.08239 20.1477C2.97342 18.3626 2.33301 16.2561 2.33301 13.9999C2.33301 7.5566 7.55635 2.33325 13.9997 2.33325C20.443 2.33325 25.6663 7.5566 25.6663 13.9999C25.6663 20.4432 20.4163 25.6666 13.9997 25.6666C12.0672 25.6666 10.7229 25.3081 9.81567 25.0661C9.35363 24.9429 9.00495 24.8499 8.74967 24.8499C8.02465 24.8499 4.28236 25.6 3.97214 25.6625C3.95693 25.6655 3.94371 25.6667 3.92819 25.6664ZM19.4246 14.2916C19.4246 13.4862 18.7716 12.8333 17.9662 12.8333C17.1608 12.8333 16.5079 13.4862 16.5079 14.2916C16.5079 15.097 17.1608 15.7499 17.9662 15.7499C18.7716 15.7499 19.4246 15.097 19.4246 14.2916ZM10.0331 15.7499C9.22771 15.7499 8.57479 15.097 8.57479 14.2916C8.57479 13.4862 9.22771 12.8333 10.0331 12.8333C10.8385 12.8333 11.4915 13.4862 11.4915 14.2916C11.4915 15.097 10.8385 15.7499 10.0331 15.7499Z" fill="black" fill-opacity="0.8"/>
</svg>
