<svg width="28" height="28" viewBox="0 0 28 28" fill="none" xmlns="http://www.w3.org/2000/svg">
<path d="M5.56939 19.2243C5.87631 19.7184 5.95646 20.3317 5.76695 20.9002L4.83008 23.7108C5.15503 23.6484 5.51933 23.5795 5.89013 23.5115C6.42893 23.4127 6.99189 23.3138 7.47204 23.239C7.89576 23.1729 8.40721 23.0999 8.75016 23.0999C9.24743 23.0999 9.81047 23.252 10.1735 23.35L10.2671 23.3752C11.1363 23.607 12.302 23.9166 14.0002 23.9166C19.4529 23.9166 23.9168 19.4741 23.9168 13.9999C23.9168 8.5231 19.477 4.08325 14.0002 4.08325C8.52334 4.08325 4.0835 8.5231 4.0835 13.9999C4.0835 15.9204 4.62766 17.7084 5.56939 19.2243ZM3.92868 25.6664C3.14484 25.6512 2.59603 24.879 2.84536 24.131L4.10676 20.3468C4.12894 20.2803 4.11989 20.2073 4.08288 20.1477C2.97391 18.3626 2.3335 16.2561 2.3335 13.9999C2.3335 7.5566 7.55684 2.33325 14.0002 2.33325C20.4435 2.33325 25.6668 7.5566 25.6668 13.9999C25.6668 20.4432 20.4168 25.6666 14.0002 25.6666C12.0677 25.6666 10.7234 25.3081 9.81616 25.0661C9.35411 24.9429 9.00544 24.8499 8.75016 24.8499C8.02513 24.8499 4.28285 25.6 3.97263 25.6625C3.95741 25.6655 3.9442 25.6667 3.92868 25.6664ZM19.425 14.2916C19.425 13.4862 18.7721 12.8333 17.9667 12.8333C17.1613 12.8333 16.5084 13.4862 16.5084 14.2916C16.5084 15.097 17.1613 15.7499 17.9667 15.7499C18.7721 15.7499 19.425 15.097 19.425 14.2916ZM10.0336 15.7499C9.2282 15.7499 8.57528 15.097 8.57528 14.2916C8.57528 13.4862 9.2282 12.8333 10.0336 12.8333C10.839 12.8333 11.4919 13.4862 11.4919 14.2916C11.4919 15.097 10.839 15.7499 10.0336 15.7499Z" fill="black" fill-opacity="0.8"/>
</svg>
