<svg width="28" height="28" viewBox="0 0 28 28" fill="none" xmlns="http://www.w3.org/2000/svg">
<path d="M19.0487 24.9058C19.7399 25.2076 20.5399 25.1205 21.1496 24.6772C21.7593 24.234 22.0868 23.5012 22.0097 22.7529L21.4826 17.6378C21.4657 17.4736 21.5191 17.3099 21.6297 17.1873L25.1229 13.3147C25.6288 12.7538 25.7967 11.9669 25.5636 11.2494C25.3304 10.5319 24.7315 9.99247 23.9918 9.83381L18.8537 8.73166C18.694 8.69741 18.556 8.59777 18.4732 8.45697L15.8302 3.96199C15.4495 3.31454 14.753 2.91675 14.0002 2.91675C13.2473 2.91675 12.5508 3.31454 12.1701 3.96199L9.52711 8.45697C9.44433 8.59777 9.3063 8.69741 9.14661 8.73166L4.00849 9.83381C3.26881 9.99247 2.66991 10.5319 2.43676 11.2494C2.20361 11.9669 2.37151 12.7538 2.87739 13.3147L6.37064 17.1873C6.48122 17.3099 6.53467 17.4736 6.51775 17.6378L5.99066 22.7529C5.91356 23.5012 6.24106 24.234 6.85073 24.6772C7.46039 25.1205 8.26041 25.2076 8.95165 24.9058L13.7668 22.804C13.9156 22.739 14.0847 22.739 14.2335 22.804L19.0487 24.9058ZM4.17684 12.1425C4.08953 12.0457 4.06161 11.9117 4.10109 11.7902C4.14073 11.6682 4.2439 11.5731 4.37552 11.5449L9.51364 10.4427C10.1524 10.3057 10.7045 9.90716 11.0357 9.34399L13.6787 4.84901C13.7441 4.7378 13.8657 4.66675 14.0002 4.66675C14.1346 4.66675 14.2563 4.7378 14.3217 4.84901L16.9647 9.34399C17.2958 9.90717 17.8479 10.3057 18.4867 10.4427L23.6248 11.5449C23.7564 11.5731 23.8596 11.6682 23.8992 11.7902C23.9387 11.9117 23.9108 12.0457 23.8235 12.1425L20.3302 16.0152C19.8879 16.5055 19.6741 17.1603 19.7418 17.8172L20.2689 22.9323C20.2819 23.0586 20.227 23.1844 20.1205 23.2618C20.0133 23.3397 19.8714 23.3555 19.7488 23.302L14.9336 21.2001C14.3384 20.9403 13.6619 20.9403 13.0667 21.2001L8.25156 23.302C8.12892 23.3555 7.98698 23.3397 7.87986 23.2618C7.77337 23.1844 7.71844 23.0586 7.73145 22.9323L8.25853 17.8172C8.32622 17.1603 8.1124 16.5055 7.67009 16.0152L4.17684 12.1425Z" fill="black" fill-opacity="0.8"/>
</svg>
