<svg width="28" height="28" viewBox="0 0 28 28" fill="none" xmlns="http://www.w3.org/2000/svg">
<path d="M19.0482 24.9058C19.7394 25.2076 20.5394 25.1205 21.1491 24.6772C21.7588 24.234 22.0863 23.5012 22.0092 22.7529L21.4821 17.6378C21.4652 17.4736 21.5186 17.3099 21.6292 17.1873L25.1224 13.3147C25.6283 12.7538 25.7962 11.9669 25.5631 11.2494C25.3299 10.5319 24.731 9.99247 23.9913 9.83381L18.8532 8.73166C18.6935 8.69741 18.5555 8.59777 18.4727 8.45697L15.8297 3.96199C15.449 3.31454 14.7525 2.91675 13.9997 2.91675C13.2468 2.91675 12.5503 3.31454 12.1696 3.96199L9.52662 8.45697C9.44384 8.59777 9.30582 8.69741 9.14612 8.73166L4.008 9.83381C3.26832 9.99247 2.66942 10.5319 2.43627 11.2494C2.20312 11.9669 2.37102 12.7538 2.8769 13.3147L6.37015 17.1873C6.48073 17.3099 6.53418 17.4736 6.51726 17.6378L5.99018 22.7529C5.91307 23.5012 6.24058 24.234 6.85024 24.6772C7.4599 25.1205 8.25992 25.2076 8.95116 24.9058L13.7663 22.804C13.9151 22.739 14.0842 22.739 14.233 22.804L19.0482 24.9058ZM4.17636 12.1425C4.08904 12.0457 4.06112 11.9117 4.1006 11.7902C4.14024 11.6682 4.24342 11.5731 4.37503 11.5449L9.51315 10.4427C10.1519 10.3057 10.704 9.90716 11.0352 9.34399L13.6782 4.84901C13.7436 4.7378 13.8652 4.66675 13.9997 4.66675C14.1341 4.66675 14.2558 4.7378 14.3212 4.84901L16.9642 9.34399C17.2953 9.90717 17.8474 10.3057 18.4862 10.4427L23.6243 11.5449C23.7559 11.5731 23.8591 11.6682 23.8987 11.7902C23.9382 11.9117 23.9103 12.0457 23.823 12.1425L20.3297 16.0152C19.8874 16.5055 19.6736 17.1603 19.7413 17.8172L20.2684 22.9323C20.2814 23.0586 20.2265 23.1844 20.12 23.2618C20.0129 23.3397 19.8709 23.3555 19.7483 23.302L14.9331 21.2001C14.338 20.9403 13.6614 20.9403 13.0662 21.2001L8.25107 23.302C8.12843 23.3555 7.98649 23.3397 7.87937 23.2618C7.77288 23.1844 7.71795 23.0586 7.73096 22.9323L8.25804 17.8172C8.32573 17.1603 8.11192 16.5055 7.66961 16.0152L4.17636 12.1425Z" fill="black" fill-opacity="0.8"/>
</svg>
