<svg width="24" height="24" viewBox="0 0 24 24" fill="none" xmlns="http://www.w3.org/2000/svg">
<path d="M11.7837 4.7334C13.5131 4.73349 15.1718 5.29627 16.606 6.59863L16.8892 6.86816C18.3783 8.35739 18.9994 10.2167 18.9995 11.9463C18.9995 12.6111 18.9289 13.2813 18.812 13.9551C18.6975 14.5873 18.483 15.2006 18.1753 15.7764C17.5545 16.9263 16.5584 17.8686 15.3237 18.4619C14.7076 18.7551 14.0469 18.9609 13.3657 19.0703C12.6501 19.1826 11.9266 19.241 11.1968 19.251H11.1919L10.1616 19.2646C10.1584 19.2646 10.1551 19.2656 10.1519 19.2656C9.93506 19.2656 8.60555 19.2654 7.2124 19.2656C6.37155 19.2658 5.81438 19.2645 5.40088 19.209C5.00864 19.1563 4.85687 19.0673 4.76123 18.9717C4.66561 18.876 4.57653 18.7243 4.52393 18.332C4.46848 17.9185 4.46698 17.3614 4.46729 16.5205C4.46781 15.0946 4.46826 13.7356 4.46826 13.5713C4.46826 13.2204 4.4739 12.8886 4.48193 12.543V12.5352C4.49078 11.8073 4.5501 11.0809 4.66162 10.3643C4.77249 9.68084 4.97771 9.02032 5.271 8.40332C5.86363 7.17269 6.80566 6.17934 7.95264 5.55859L7.95361 5.55957C8.52858 5.25186 9.14221 5.03581 9.77295 4.9209L9.77393 4.92188C10.4477 4.8037 11.1191 4.7334 11.7837 4.7334ZM9.45068 19.8193C9.45804 19.7902 9.46794 19.7591 9.48096 19.7266C9.46898 19.7566 9.45866 19.7874 9.45068 19.8193ZM9.51416 19.6582C9.52002 19.6471 9.52406 19.6343 9.53076 19.623C9.53542 19.6152 9.54034 19.6074 9.54541 19.5996C9.53336 19.6182 9.52453 19.6385 9.51416 19.6582ZM9.77686 19.375C9.78709 19.3687 9.79734 19.3614 9.80811 19.3555C9.82455 19.3465 9.84155 19.3395 9.85791 19.332C9.82994 19.3448 9.80289 19.3589 9.77686 19.375ZM9.88916 19.3174C9.92736 19.3022 9.9651 19.2913 10.0015 19.2832C9.96292 19.2918 9.92533 19.3029 9.88916 19.3174ZM10.0386 19.2764C10.0753 19.2702 10.1104 19.2664 10.1431 19.2656C10.1076 19.2665 10.0728 19.2705 10.0386 19.2764ZM9.65479 19.4688C9.67964 19.445 9.70699 19.4225 9.73682 19.4014C9.70789 19.4219 9.68046 19.4443 9.65479 19.4688Z" stroke="black" stroke-opacity="0.8" stroke-width="1.46667"/>
</svg>
