<svg width="48" height="44" viewBox="0 0 48 44" fill="none" xmlns="http://www.w3.org/2000/svg">
<path d="M27.7842 14.7334C29.5136 14.7335 31.1723 15.2963 32.6064 16.5986L32.8896 16.8682C34.3788 18.3574 34.9999 20.2167 35 21.9463C35 22.6111 34.9293 23.2813 34.8125 23.9551C34.698 24.5873 34.4835 25.2006 34.1758 25.7764C33.555 26.9263 32.5589 27.8686 31.3242 28.4619C30.7081 28.7551 30.0474 28.9609 29.3662 29.0703C28.6506 29.1826 27.9271 29.241 27.1973 29.251H27.1924L26.1621 29.2646C26.1589 29.2646 26.1556 29.2656 26.1523 29.2656C25.9355 29.2656 24.606 29.2654 23.2129 29.2656C22.372 29.2658 21.8149 29.2645 21.4014 29.209C21.0091 29.1563 20.8574 29.0673 20.7617 28.9717C20.6661 28.876 20.577 28.7243 20.5244 28.332C20.469 27.9185 20.4675 27.3614 20.4678 26.5205C20.4683 25.0946 20.4688 23.7356 20.4688 23.5713C20.4688 23.2204 20.4744 22.8886 20.4824 22.543V22.5352C20.4913 21.8073 20.5506 21.0809 20.6621 20.3643C20.773 19.6808 20.9782 19.0203 21.2715 18.4033C21.8641 17.1727 22.8062 16.1793 23.9531 15.5586L23.9541 15.5596C24.5291 15.2519 25.1427 15.0358 25.7734 14.9209L25.7744 14.9219C26.4481 14.8037 27.1196 14.7334 27.7842 14.7334ZM25.4512 29.8193C25.4585 29.7902 25.4684 29.7591 25.4814 29.7266C25.4695 29.7566 25.4591 29.7874 25.4512 29.8193ZM25.5146 29.6582C25.5205 29.6471 25.5245 29.6343 25.5312 29.623C25.5359 29.6152 25.5408 29.6074 25.5459 29.5996C25.5338 29.6182 25.525 29.6385 25.5146 29.6582ZM25.7773 29.375C25.7876 29.3687 25.7978 29.3614 25.8086 29.3555C25.825 29.3465 25.842 29.3395 25.8584 29.332C25.8304 29.3448 25.8034 29.3589 25.7773 29.375ZM25.8896 29.3174C25.9278 29.3022 25.9656 29.2913 26.002 29.2832C25.9634 29.2918 25.9258 29.3029 25.8896 29.3174ZM26.0391 29.2764C26.0758 29.2702 26.1108 29.2664 26.1436 29.2656C26.1081 29.2665 26.0733 29.2705 26.0391 29.2764ZM25.6553 29.4688C25.6801 29.445 25.7075 29.4225 25.7373 29.4014C25.7084 29.4219 25.6809 29.4443 25.6553 29.4688Z" stroke="black" stroke-opacity="0.8" stroke-width="1.46667"/>
</svg>
