<svg width="20" height="20" viewBox="0 0 20 20" fill="none" xmlns="http://www.w3.org/2000/svg">
<path d="M5.3322 11.1461L13.2788 3.19953C14.1737 2.30458 15.6247 2.30458 16.5197 3.19953C17.4146 4.09449 17.4146 5.54549 16.5197 6.44044L8.58553 14.3746C8.33883 14.6213 8.01186 14.7714 7.66396 14.7976L5.8279 14.936C5.25423 14.9792 4.75412 14.5493 4.71088 13.9756C4.70597 13.9105 4.70719 13.8451 4.71452 13.7802L4.91429 12.0134C4.95139 11.6854 5.09873 11.3796 5.3322 11.1461ZM7.57 13.5511C7.6197 13.5474 7.66641 13.5259 7.70165 13.4907L15.6358 5.55656C16.0426 5.14976 16.0426 4.49021 15.6358 4.08342C15.229 3.67662 14.5694 3.67662 14.1626 4.08342L6.21608 12.03C6.18273 12.0633 6.16168 12.107 6.15638 12.1539L5.98488 13.6706L7.57 13.5511Z" fill="black" fill-opacity="0.45"/>
<path d="M3.95801 16.2499C3.61283 16.2499 3.33301 16.5297 3.33301 16.8749C3.33301 17.2201 3.61283 17.4999 3.95801 17.4999H16.0413C16.3865 17.4999 16.6663 17.2201 16.6663 16.8749C16.6663 16.5297 16.3865 16.2499 16.0413 16.2499H3.95801Z" fill="black" fill-opacity="0.45"/>
</svg>
