<svg width="20" height="20" viewBox="0 0 20 20" fill="none" xmlns="http://www.w3.org/2000/svg">
<path d="M5.33268 11.1461L13.2792 3.19953C14.1742 2.30458 15.6252 2.30458 16.5202 3.19953C17.4151 4.09449 17.4151 5.54549 16.5202 6.44044L8.58602 14.3746C8.33932 14.6213 8.01235 14.7714 7.66445 14.7976L5.82839 14.936C5.25472 14.9792 4.75461 14.5493 4.71136 13.9756C4.70646 13.9105 4.70768 13.8451 4.71501 13.7802L4.91478 12.0134C4.95188 11.6854 5.09921 11.3796 5.33268 11.1461ZM7.57049 13.5511C7.62019 13.5474 7.6669 13.5259 7.70214 13.4907L15.6363 5.55656C16.0431 5.14976 16.0431 4.49021 15.6363 4.08342C15.2295 3.67662 14.5699 3.67662 14.1631 4.08342L6.21657 12.03C6.18322 12.0633 6.16217 12.107 6.15687 12.1539L5.98537 13.6706L7.57049 13.5511Z" fill="black" fill-opacity="0.45"/>
<path d="M3.9585 16.2499C3.61332 16.2499 3.3335 16.5297 3.3335 16.8749C3.3335 17.2201 3.61332 17.4999 3.9585 17.4999H16.0418C16.387 17.4999 16.6668 17.2201 16.6668 16.8749C16.6668 16.5297 16.387 16.2499 16.0418 16.2499H3.9585Z" fill="black" fill-opacity="0.45"/>
</svg>
