<svg width="16" height="16" viewBox="0 0 16 16" fill="none" xmlns="http://www.w3.org/2000/svg">
<path d="M7.8263 9.66676C7.82827 9.66878 7.83027 9.67078 7.83231 9.67274C7.93835 9.77494 8.10716 9.77183 8.20936 9.66579L12.1898 5.53591C12.446 5.27154 12.8681 5.26497 13.1325 5.52123C13.3968 5.7775 13.4034 6.19956 13.1471 6.46393L8.75232 11.0225C8.74118 11.0338 8.74118 11.0338 8.72982 11.045C8.32445 11.4379 7.67729 11.4278 7.28435 11.0225L2.8579 6.47527C2.60164 6.2109 2.60821 5.78884 2.87258 5.53258C3.13695 5.27631 3.55901 5.28288 3.81528 5.54726L7.8263 9.66676Z" fill="black" fill-opacity="0.45"/>
</svg>
