<svg width="14" height="14" viewBox="0 0 14 14" fill="none" xmlns="http://www.w3.org/2000/svg">
<circle cx="7.00033" cy="7.00008" r="5.83333" fill="#42C9A0"/>
<path d="M7 7.14591C7.80542 7.14591 8.45833 6.493 8.45833 5.68758C8.45833 4.88217 7.80542 4.22925 7 4.22925C6.19458 4.22925 5.54167 4.88217 5.54167 5.68758C5.54167 6.493 6.19458 7.14591 7 7.14591Z" fill="white"/>
<path d="M5.54167 7.72925C4.89733 7.72925 4.375 8.25158 4.375 8.89592V9.47925C4.375 9.64033 4.50558 9.77092 4.66667 9.77092H9.33333C9.49442 9.77092 9.625 9.64033 9.625 9.47925V8.89592C9.625 8.25158 9.10267 7.72925 8.45833 7.72925H5.54167Z" fill="white"/>
</svg>
