<svg width="28" height="28" viewBox="0 0 28 28" fill="none" xmlns="http://www.w3.org/2000/svg">
<path d="M5.69849 6.84838L5.69831 6.84856C3.54745 8.97242 3.5449 12.4138 5.69261 14.5417C5.69287 14.542 5.69314 14.5422 5.6934 14.5425L14 22.7472L22.3011 14.5492C22.3015 14.5489 22.3018 14.5486 22.3021 14.5483C24.4564 12.4136 24.4532 8.97232 22.3028 6.84838C21.2542 5.8126 19.8543 5.25 18.3951 5.25C17.1825 5.25 16.0131 5.63791 15.0522 6.36056L14.0007 7.15143L12.9489 6.36091C11.987 5.63795 10.8172 5.25 9.60555 5.25C8.14622 5.25 6.74751 5.81222 5.69849 6.84838ZM23.5326 15.7926L15.2229 23.999C14.5466 24.667 13.4551 24.667 12.777 23.999L4.46196 15.7859C1.62158 12.9729 1.62419 8.41215 4.46871 5.60333C5.85056 4.23842 7.69332 3.5 9.60555 3.5C11.1925 3.5 12.7321 4.00875 14.0004 4.96198C15.268 4.00857 16.8075 3.5 18.3951 3.5C20.307 3.5 22.151 4.23867 23.5326 5.60333C26.3777 8.41351 26.3785 12.9741 23.5326 15.7926Z" fill="black" fill-opacity="0.8"/>
</svg>
