<svg width="16" height="16" viewBox="0 0 16 16" fill="none" xmlns="http://www.w3.org/2000/svg">
<path d="M3.25586 3.91336L3.25576 3.91346C2.0267 5.1271 2.02524 7.09361 3.2525 8.30955C3.25265 8.3097 3.2528 8.30985 3.25295 8.31L7.99956 12.9984L12.7431 8.31384C12.7433 8.31366 12.7435 8.31347 12.7436 8.31329C13.9747 7.09351 13.9728 5.12704 12.7441 3.91336C12.1448 3.32148 11.3449 3 10.5111 3C9.81816 3 9.14991 3.22167 8.60087 3.63461L8 4.08653L7.39897 3.63481C6.84931 3.22169 6.18087 3 5.48847 3C4.65456 3 3.8553 3.32127 3.25586 3.91336ZM13.4468 9.02436L8.69839 13.7137C8.31193 14.0954 7.68821 14.0954 7.30072 13.7137L2.54927 9.02052C0.926198 7.41306 0.927689 4.80694 2.55313 3.2019C3.34276 2.42196 4.39576 2 5.48847 2C6.39528 2 7.27505 2.29071 7.99979 2.83542C8.72416 2.29061 9.6039 2 10.5111 2C11.6036 2 12.6573 2.4221 13.4468 3.2019C15.0725 4.80772 15.073 7.41379 13.4468 9.02436Z" fill="black" fill-opacity="0.45"/>
</svg>
