<svg width="28" height="28" viewBox="0 0 28 28" fill="none" xmlns="http://www.w3.org/2000/svg">
<path d="M5.69801 6.84838L5.69782 6.84856C3.54696 8.97242 3.54442 12.4138 5.69212 14.5417C5.69238 14.542 5.69265 14.5422 5.69291 14.5425L13.9995 22.7472L22.3006 14.5492C22.301 14.5489 22.3013 14.5486 22.3016 14.5483C24.4559 12.4136 24.4527 8.97232 22.3024 6.84838C21.2537 5.8126 19.8538 5.25 18.3946 5.25C17.182 5.25 16.0126 5.63791 15.0518 6.36056L14.0002 7.15143L12.9484 6.36091C11.9865 5.63795 10.8168 5.25 9.60506 5.25C8.14573 5.25 6.74702 5.81222 5.69801 6.84838ZM23.5321 15.7926L15.2224 23.999C14.5461 24.667 13.4546 24.667 12.7765 23.999L4.46147 15.7859C1.62109 12.9729 1.6237 8.41215 4.46823 5.60333C5.85007 4.23842 7.69283 3.5 9.60506 3.5C11.192 3.5 12.7316 4.00875 13.9999 4.96198C15.2675 4.00857 16.8071 3.5 18.3946 3.5C20.3065 3.5 22.1505 4.23867 23.5321 5.60333C26.3772 8.41351 26.378 12.9741 23.5321 15.7926Z" fill="black" fill-opacity="0.8"/>
</svg>
