<svg width="20" height="20" viewBox="0 0 20 20" fill="none" xmlns="http://www.w3.org/2000/svg">
<path d="M9.99967 2.4165C10.3449 2.4165 10.6247 2.69633 10.6247 3.0415V10.0223L13.1028 7.8697C13.3634 7.64334 13.7581 7.67109 13.9845 7.93168C14.2109 8.19228 14.1831 8.58703 13.9225 8.81339L11.1369 11.2331C11.0164 11.3377 10.901 11.438 10.7964 11.5157C10.6814 11.6011 10.5432 11.6875 10.3698 11.7385C10.1231 11.8111 9.8607 11.8111 9.61396 11.7385C9.44058 11.6875 9.30244 11.6011 9.18741 11.5157C9.08279 11.438 8.96738 11.3377 8.84691 11.2331L6.0613 8.81339C5.80071 8.58703 5.77295 8.19228 5.99931 7.93168C6.22567 7.67109 6.62043 7.64334 6.88102 7.8697L9.37467 10.0358V3.0415C9.37467 2.69633 9.6545 2.4165 9.99967 2.4165Z" fill="white"/>
<path d="M2.70801 8.8665C3.05319 8.8665 3.33301 9.14632 3.33301 9.4915V11.0772C3.33301 12.0876 3.33349 12.8078 3.37959 13.372C3.42509 13.9289 3.51189 14.2785 3.65415 14.5577C3.93663 15.1121 4.38738 15.5629 4.94179 15.8453C5.22098 15.9876 5.57059 16.0744 6.12748 16.1199C6.69167 16.166 7.41189 16.1665 8.42229 16.1665H11.5771C12.5875 16.1665 13.3077 16.166 13.8719 16.1199C14.4288 16.0744 14.7784 15.9876 15.0576 15.8453C15.612 15.5629 16.0627 15.1121 16.3452 14.5577C16.4875 14.2785 16.5743 13.9289 16.6198 13.372C16.6659 12.8078 16.6663 12.0876 16.6663 11.0772V9.4915C16.6663 9.14632 16.9462 8.8665 17.2913 8.8665C17.6365 8.8665 17.9163 9.14632 17.9163 9.4915V11.1049C17.9163 12.0815 17.9163 12.8528 17.8656 13.4738C17.8138 14.108 17.706 14.6404 17.459 15.1252C17.0566 15.9148 16.4147 16.5568 15.6251 16.9591C15.1403 17.2061 14.6079 17.3139 13.9737 17.3658C13.3526 17.4165 12.5814 17.4165 11.6047 17.4165H8.39462C7.41796 17.4165 6.64674 17.4165 6.02569 17.3658C5.3915 17.3139 4.85908 17.2061 4.3743 16.9591C3.58469 16.5568 2.94272 15.9148 2.54039 15.1252C2.29338 14.6404 2.18556 14.108 2.13374 13.4738C2.083 12.8528 2.083 12.0815 2.08301 11.1049V9.4915C2.08301 9.14632 2.36283 8.8665 2.70801 8.8665Z" fill="white"/>
</svg>
