<svg width="20" height="20" viewBox="0 0 20 20" fill="none" xmlns="http://www.w3.org/2000/svg">
<path d="M5.83333 3.75H7.29167C7.63684 3.75 7.91667 3.47018 7.91667 3.125C7.91667 2.77982 7.63684 2.5 7.29167 2.5H5.83333C3.99238 2.5 2.5 3.99238 2.5 5.83333V14.1667C2.5 16.0076 3.99238 17.5 5.83333 17.5H14.1667C16.0076 17.5 17.5 16.0076 17.5 14.1667V12.7083C17.5 12.3632 17.2202 12.0833 16.875 12.0833C16.5298 12.0833 16.25 12.3632 16.25 12.7083V14.1667C16.25 15.3173 15.3173 16.25 14.1667 16.25H5.83333C4.68274 16.25 3.75 15.3173 3.75 14.1667V5.83333C3.75 4.68274 4.68274 3.75 5.83333 3.75Z" fill="white"/>
<path d="M11.0417 3.75H15.3583L8.68424 10.4241C8.44016 10.6681 8.44016 11.0639 8.68424 11.3079C8.92832 11.552 9.32404 11.552 9.56812 11.3079L16.25 4.62607V8.95833C16.25 9.30351 16.5298 9.58333 16.875 9.58333C17.2202 9.58333 17.5 9.30351 17.5 8.95833V3.33333C17.5 2.8731 17.1269 2.5 16.6667 2.5H11.0417C10.6965 2.5 10.4167 2.77982 10.4167 3.125C10.4167 3.47018 10.6965 3.75 11.0417 3.75Z" fill="white"/>
</svg>
