<svg width="20" height="20" viewBox="0 0 20 20" fill="none" xmlns="http://www.w3.org/2000/svg">
<path d="M15.4767 4C15.4988 4 15.5451 4.01325 15.5759 4.07677L16.7477 6.48879C16.9547 6.91484 16.7697 7.40452 16.4097 7.58975C16.31 7.64108 16.2025 7.66667 16.0953 7.66667H15.6948C15.6821 7.66308 15.6578 7.65545 15.6193 7.64033C15.5254 7.60345 15.4407 7.5624 15.3023 7.49529C15.2446 7.46732 15.1776 7.43481 15.0966 7.39618C14.6045 7.16139 13.8585 6.83333 12.8642 6.83333C11.9036 6.83333 11.271 7.1852 10.8959 7.39389C10.8699 7.40833 10.8452 7.42207 10.8217 7.43497C10.5469 7.58578 10.3889 7.66667 10.0002 7.66667C9.60211 7.66667 9.41556 7.57964 9.11418 7.42158C9.08762 7.40766 9.05938 7.39258 9.02945 7.3766C8.6538 7.17606 8.01182 6.83333 7.08352 6.83333C6.1428 6.83333 5.39392 7.1769 4.9353 7.39237C4.88442 7.41627 4.83839 7.43803 4.79624 7.45795C4.62094 7.54081 4.51294 7.59186 4.40365 7.63311C4.34476 7.65534 4.31144 7.6638 4.29887 7.66667H3.9049C3.53778 7.66667 3.16699 7.34803 3.16699 6.86339C3.16699 6.73157 3.1969 6.60317 3.25247 6.48879L4.42425 4.07677C4.45511 4.01325 4.50141 4 4.52344 4H15.4767ZM15.4767 2.5H4.52344C3.91007 2.5 3.34935 2.85667 3.07504 3.42131L1.90325 5.83333C1.74788 6.15316 1.66699 6.50582 1.66699 6.86339C1.66699 8.13545 2.66894 9.16667 3.9049 9.16667H4.31825C4.69332 9.16667 5.06025 8.99283 5.45894 8.80395C5.93317 8.57928 6.45232 8.33333 7.08352 8.33333C7.62803 8.33333 7.97477 8.51637 8.34325 8.71087C8.76101 8.9314 9.20671 9.16667 10.0002 9.16667C10.7882 9.16667 11.2086 8.93469 11.6059 8.71553C11.9616 8.5193 12.2987 8.33333 12.8642 8.33333C13.5929 8.33333 14.1301 8.59402 14.6036 8.82379C14.9767 9.00483 15.3103 9.16667 15.6667 9.16667H16.0953C16.4427 9.16667 16.7853 9.08341 17.0961 8.9235C18.2016 8.35462 18.6496 6.9711 18.0969 5.83333L16.9251 3.42131C16.6508 2.85667 16.0901 2.5 15.4767 2.5Z" fill="black" fill-opacity="0.8"/>
<path d="M14.9391 10.75V15.0833C14.9391 15.5896 14.5403 16 14.0484 16H5.95159C5.4597 16 5.06094 15.5896 5.06094 15.0833V10.75C5.06094 10.3358 4.73468 10 4.33223 10C3.92977 10 3.60351 10.3358 3.60351 10.75V15.0833C3.60351 16.418 4.65478 17.5 5.95159 17.5H14.0484C15.3452 17.5 16.3965 16.418 16.3965 15.0833V10.75C16.3965 10.3358 16.0702 10 15.6678 10C15.2653 10 14.9391 10.3358 14.9391 10.75Z" fill="black" fill-opacity="0.8"/>
</svg>
