<svg width="48" height="44" viewBox="0 0 48 44" fill="none" xmlns="http://www.w3.org/2000/svg">
<path d="M25.1637 26.1003C26.3106 24.7157 27 22.9384 27 21C27 16.5817 23.4183 13 19 13C14.5817 13 11 16.5817 11 21C11 25.4183 14.5817 29 19 29C20.9398 29 22.7183 28.3096 24.1032 27.1612L27.7201 30.7781C28.013 31.0709 28.4879 31.0709 28.7808 30.7781C29.0737 30.4852 29.0737 30.0103 28.7808 29.7174L25.1637 26.1003ZM19 27.5C15.4101 27.5 12.5 24.5899 12.5 21C12.5 17.4101 15.4101 14.5 19 14.5C22.5899 14.5 25.5 17.4101 25.5 21C25.5 24.5899 22.5899 27.5 19 27.5Z" fill="black" fill-opacity="0.8"/>
</svg>
