<svg width="24" height="24" viewBox="0 0 24 24" fill="none" xmlns="http://www.w3.org/2000/svg">
<path d="M12.43 7.73647C12.43 8.01901 12.2328 8.26327 11.9567 8.32294L11.2467 8.47633C9.37816 8.88005 7.32818 9.87917 5.81854 11.6103C4.51516 13.1049 3.54738 15.2198 3.50209 18.1654C5.01993 15.7978 7.22517 13.8336 10.5963 13.0645L11.6965 12.8135C12.0721 12.7278 12.43 13.0132 12.43 13.3984V17.3699C12.43 17.6277 12.7335 17.7654 12.9275 17.5957L20.394 11.0625C20.5306 10.943 20.5306 10.7305 20.394 10.6109L12.9275 4.07773C12.7335 3.908 12.43 4.04575 12.43 4.3035V7.73647ZM21.3818 9.48207C22.2014 10.1992 22.2014 11.4742 21.3818 12.1913L13.9153 18.7246C12.7514 19.7429 10.93 18.9164 10.93 17.3699V14.5269C10.3974 14.6484 9.89832 14.8038 9.42996 14.9898C7.02838 15.9433 5.4348 17.6985 4.28281 19.7856C3.70697 20.8289 2.12159 20.7104 2.04014 19.5216C1.49476 11.5603 6.68325 7.92771 10.93 7.01016V4.3035C10.93 2.75702 12.7514 1.9305 13.9153 2.94886L21.3818 9.48207Z" fill="black" fill-opacity="0.8"/>
</svg>
