<svg width="24" height="24" viewBox="0 0 24 24" fill="none" xmlns="http://www.w3.org/2000/svg">
<path d="M12.4304 7.73647C12.4304 8.01901 12.2333 8.26327 11.9572 8.32294L11.2472 8.47633C9.37865 8.88005 7.32867 9.87917 5.81902 11.6103C4.51565 13.1049 3.54787 15.2198 3.50258 18.1654C5.02042 15.7978 7.22566 13.8336 10.5968 13.0645L11.697 12.8135C12.0726 12.7278 12.4304 13.0132 12.4304 13.3984V17.3699C12.4304 17.6277 12.734 17.7654 12.928 17.5957L20.3945 11.0625C20.5311 10.943 20.5311 10.7305 20.3945 10.6109L12.928 4.07773C12.734 3.908 12.4304 4.04575 12.4304 4.3035V7.73647ZM21.3823 9.48207C22.2019 10.1992 22.2019 11.4742 21.3823 12.1913L13.9158 18.7246C12.7519 19.7429 10.9304 18.9164 10.9304 17.3699V14.5269C10.3979 14.6484 9.89881 14.8038 9.43044 14.9898C7.02887 15.9433 5.43529 17.6985 4.2833 19.7856C3.70746 20.8289 2.12207 20.7104 2.04063 19.5216C1.49525 11.5603 6.68374 7.92771 10.9304 7.01016V4.3035C10.9304 2.75702 12.7519 1.9305 13.9157 2.94886L21.3823 9.48207Z" fill="black" fill-opacity="0.8"/>
</svg>
