<svg width="375" height="44" viewBox="0 0 375 44" fill="none" xmlns="http://www.w3.org/2000/svg">
<g clip-path="url(#clip0_160_11144)">
<rect width="375" height="44" fill="white"/>
<path opacity="0.35" d="M338.667 16.8333H355.333C356.53 16.8333 357.5 17.8036 357.5 19.0002V25.0002C357.5 26.1967 356.53 27.1663 355.333 27.1663H338.667C337.47 27.1663 336.5 26.1967 336.5 25.0002V19.0002C336.5 17.8036 337.47 16.8333 338.667 16.8333Z" stroke="black"/>
<path opacity="0.4" d="M359 20V24C359.805 23.6612 360.328 22.8731 360.328 22C360.328 21.1269 359.805 20.3388 359 20" fill="black"/>
<path d="M338 19.6666C338 18.9302 338.597 18.3333 339.333 18.3333H354.667C355.403 18.3333 356 18.9302 356 19.6666V24.3333C356 25.0696 355.403 25.6666 354.667 25.6666H339.333C338.597 25.6666 338 25.0696 338 24.3333V19.6666Z" fill="black"/>
<path d="M321.121 24.7311C322.397 23.6522 324.265 23.6522 325.541 24.7311C325.605 24.7892 325.642 24.8713 325.644 24.9577C325.645 25.0442 325.612 25.1276 325.55 25.1882L323.553 27.2038C323.494 27.263 323.414 27.2965 323.331 27.2966C323.248 27.2966 323.168 27.263 323.109 27.2038L321.111 25.1882C321.05 25.1276 321.016 25.0441 321.018 24.9577C321.019 24.8712 321.057 24.7891 321.121 24.7311ZM318.456 22.0417C321.204 19.4856 325.46 19.4857 328.208 22.0417C328.27 22.1015 328.306 22.1841 328.307 22.2702C328.308 22.3564 328.274 22.4395 328.213 22.5007L327.059 23.6677C326.94 23.7868 326.747 23.7894 326.625 23.6735C325.723 22.8563 324.549 22.4039 323.331 22.404C322.114 22.4045 320.941 22.8568 320.039 23.6735C319.917 23.7893 319.724 23.7867 319.605 23.6677L318.451 22.5007C318.391 22.4396 318.357 22.3563 318.357 22.2702C318.358 22.1841 318.394 22.1015 318.456 22.0417ZM315.791 19.36C320.006 15.3209 326.656 15.3206 330.871 19.36C330.932 19.42 330.966 19.5021 330.967 19.5876C330.967 19.6731 330.933 19.7554 330.873 19.8161L329.717 20.9831C329.598 21.1026 329.405 21.1038 329.284 20.986C327.678 19.4593 325.547 18.6082 323.331 18.6081C321.115 18.6081 318.983 19.4591 317.377 20.986C317.256 21.104 317.063 21.1028 316.944 20.9831L315.788 19.8161C315.728 19.7553 315.694 19.6732 315.694 19.5876C315.695 19.5021 315.73 19.42 315.791 19.36Z" fill="black"/>
<path d="M295.667 23.3335C296.219 23.3335 296.667 23.7812 296.667 24.3335V26.3335C296.667 26.8856 296.219 27.3335 295.667 27.3335H294.667C294.115 27.3335 293.667 26.8856 293.667 26.3335V24.3335C293.667 23.7812 294.115 23.3335 294.667 23.3335H295.667ZM300.334 21.3335C300.886 21.3337 301.334 21.7813 301.334 22.3335V26.3335C301.334 26.8855 300.886 27.3333 300.334 27.3335H299.334C298.782 27.3335 298.334 26.8856 298.334 26.3335V22.3335C298.334 21.7812 298.782 21.3335 299.334 21.3335H300.334ZM305 18.9995C305.552 18.9995 306 19.4474 306 19.9995V26.3335C306 26.8856 305.552 27.3335 305 27.3335H304C303.448 27.3333 303 26.8855 303 26.3335V19.9995C303 19.4475 303.448 18.9997 304 18.9995H305ZM309.667 16.6665C310.219 16.6665 310.667 17.1142 310.667 17.6665V26.3335C310.667 26.8856 310.219 27.3335 309.667 27.3335H308.667C308.115 27.3335 307.667 26.8856 307.667 26.3335V17.6665C307.667 17.1142 308.115 16.6665 308.667 16.6665H309.667Z" fill="black"/>
<path d="M37.3203 28.2563C40.0083 28.2563 41.605 26.1543 41.605 22.5947C41.605 21.2544 41.3486 20.1265 40.8579 19.2549C40.1475 17.8999 38.9243 17.1675 37.3789 17.1675C35.0791 17.1675 33.4531 18.7129 33.4531 20.8809C33.4531 22.917 34.918 24.3965 36.9321 24.3965C38.1699 24.3965 39.1733 23.8179 39.6714 22.8145H39.6934C39.6934 22.8145 39.7227 22.8145 39.73 22.8145C39.7446 22.8145 39.7959 22.8145 39.7959 22.8145C39.7959 25.2314 38.8804 26.6743 37.335 26.6743C36.4268 26.6743 35.7236 26.1763 35.4819 25.3779H33.5996C33.9146 27.1138 35.3867 28.2563 37.3203 28.2563ZM37.3862 22.895C36.1704 22.895 35.3062 22.0308 35.3062 20.8223C35.3062 19.6431 36.2144 18.7422 37.3936 18.7422C38.5728 18.7422 39.481 19.6577 39.481 20.8516C39.481 22.0308 38.5947 22.895 37.3862 22.895Z" fill="black"/>
<path d="M44.6961 28.1538C45.3919 28.1538 45.868 27.6558 45.868 26.9966C45.868 26.3301 45.3919 25.8394 44.6961 25.8394C44.0076 25.8394 43.5242 26.3301 43.5242 26.9966C43.5242 27.6558 44.0076 28.1538 44.6961 28.1538ZM44.6961 22.6606C45.3919 22.6606 45.868 22.1699 45.868 21.5107C45.868 20.8442 45.3919 20.3535 44.6961 20.3535C44.0076 20.3535 43.5242 20.8442 43.5242 21.5107C43.5242 22.1699 44.0076 22.6606 44.6961 22.6606Z" fill="black"/>
<path d="M52.7237 28H54.5328V26.0298H55.961V24.4331H54.5328V17.4312H51.8668C49.9991 20.2437 48.5123 22.5947 47.5602 24.3452V26.0298H52.7237V28ZM49.3106 24.3672C50.5411 22.1992 51.6397 20.4634 52.6505 18.9692H52.753V24.4771H49.3106V24.3672Z" fill="black"/>
<path d="M59.9896 28H61.8793V17.4312H59.997L57.2357 19.3647V21.1812L59.8651 19.3354H59.9896V28Z" fill="black"/>
</g>
<defs>
<clipPath id="clip0_160_11144">
<rect width="375" height="44" fill="white"/>
</clipPath>
</defs>
</svg>
