<svg width="375" height="44" viewBox="0 0 375 44" fill="none" xmlns="http://www.w3.org/2000/svg">
<g clip-path="url(#clip0_200_10374)">
<path opacity="0.35" d="M338.667 16.833H355.333C356.53 16.833 357.5 17.8034 357.5 19V25C357.5 26.1965 356.53 27.166 355.333 27.166H338.667C337.47 27.166 336.5 26.1965 336.5 25V19C336.5 17.8034 337.47 16.833 338.667 16.833Z" stroke="white"/>
<path opacity="0.4" d="M359 19.9995V23.9995C359.805 23.6607 360.328 22.8726 360.328 21.9995C360.328 21.1264 359.805 20.3383 359 19.9995" fill="white"/>
<path d="M338 19.6663C338 18.93 338.597 18.333 339.333 18.333H354.667C355.403 18.333 356 18.93 356 19.6663V24.333C356 25.0694 355.403 25.6663 354.667 25.6663H339.333C338.597 25.6663 338 25.0694 338 24.333V19.6663Z" fill="white"/>
<path d="M321.12 24.7311C322.396 23.6522 324.264 23.6522 325.54 24.7311C325.604 24.7892 325.641 24.8713 325.643 24.9577C325.644 25.0442 325.611 25.1276 325.549 25.1882L323.552 27.2038C323.493 27.263 323.413 27.2965 323.33 27.2966C323.247 27.2966 323.167 27.263 323.108 27.2038L321.11 25.1882C321.049 25.1276 321.015 25.0441 321.017 24.9577C321.018 24.8712 321.056 24.7891 321.12 24.7311ZM318.455 22.0417C321.203 19.4856 325.459 19.4857 328.207 22.0417C328.269 22.1015 328.305 22.1841 328.306 22.2702C328.307 22.3564 328.273 22.4395 328.212 22.5007L327.058 23.6677C326.939 23.7868 326.746 23.7894 326.624 23.6735C325.722 22.8563 324.548 22.4039 323.33 22.404C322.113 22.4045 320.94 22.8568 320.038 23.6735C319.916 23.7893 319.723 23.7867 319.604 23.6677L318.45 22.5007C318.39 22.4396 318.356 22.3563 318.356 22.2702C318.357 22.1841 318.393 22.1015 318.455 22.0417ZM315.79 19.36C320.005 15.3209 326.655 15.3206 330.87 19.36C330.931 19.42 330.965 19.5021 330.966 19.5876C330.966 19.6731 330.932 19.7554 330.872 19.8161L329.716 20.9831C329.597 21.1026 329.404 21.1038 329.283 20.986C327.677 19.4593 325.546 18.6082 323.33 18.6081C321.114 18.6081 318.982 19.4591 317.376 20.986C317.255 21.104 317.062 21.1028 316.943 20.9831L315.787 19.8161C315.727 19.7553 315.693 19.6732 315.693 19.5876C315.694 19.5021 315.729 19.42 315.79 19.36Z" fill="white"/>
<path d="M295.666 23.3335C296.218 23.3335 296.666 23.7812 296.666 24.3335V26.3335C296.666 26.8856 296.218 27.3335 295.666 27.3335H294.666C294.114 27.3335 293.666 26.8856 293.666 26.3335V24.3335C293.666 23.7812 294.114 23.3335 294.666 23.3335H295.666ZM300.333 21.3335C300.885 21.3337 301.333 21.7813 301.333 22.3335V26.3335C301.333 26.8855 300.885 27.3333 300.333 27.3335H299.333C298.781 27.3335 298.333 26.8856 298.333 26.3335V22.3335C298.333 21.7812 298.781 21.3335 299.333 21.3335H300.333ZM304.999 18.9995C305.551 18.9995 305.999 19.4474 305.999 19.9995V26.3335C305.999 26.8856 305.551 27.3335 304.999 27.3335H303.999C303.447 27.3333 302.999 26.8855 302.999 26.3335V19.9995C302.999 19.4475 303.447 18.9997 303.999 18.9995H304.999ZM309.666 16.6665C310.218 16.6665 310.666 17.1142 310.666 17.6665V26.3335C310.666 26.8856 310.218 27.3335 309.666 27.3335H308.666C308.114 27.3335 307.666 26.8856 307.666 26.3335V17.6665C307.666 17.1142 308.114 16.6665 308.666 16.6665H309.666Z" fill="white"/>
<path d="M37.3203 28.2563C40.0083 28.2563 41.605 26.1543 41.605 22.5947C41.605 21.2544 41.3486 20.1265 40.8579 19.2549C40.1475 17.8999 38.9243 17.1675 37.3789 17.1675C35.0791 17.1675 33.4531 18.7129 33.4531 20.8809C33.4531 22.917 34.918 24.3965 36.9321 24.3965C38.1699 24.3965 39.1733 23.8179 39.6714 22.8145H39.6934C39.6934 22.8145 39.7227 22.8145 39.73 22.8145C39.7446 22.8145 39.7959 22.8145 39.7959 22.8145C39.7959 25.2314 38.8804 26.6743 37.335 26.6743C36.4268 26.6743 35.7236 26.1763 35.4819 25.3779H33.5996C33.9146 27.1138 35.3867 28.2563 37.3203 28.2563ZM37.3862 22.895C36.1704 22.895 35.3062 22.0308 35.3062 20.8223C35.3062 19.6431 36.2144 18.7422 37.3936 18.7422C38.5728 18.7422 39.481 19.6577 39.481 20.8516C39.481 22.0308 38.5947 22.895 37.3862 22.895Z" fill="white"/>
<path d="M44.6961 28.1538C45.3919 28.1538 45.868 27.6558 45.868 26.9966C45.868 26.3301 45.3919 25.8394 44.6961 25.8394C44.0076 25.8394 43.5242 26.3301 43.5242 26.9966C43.5242 27.6558 44.0076 28.1538 44.6961 28.1538ZM44.6961 22.6606C45.3919 22.6606 45.868 22.1699 45.868 21.5107C45.868 20.8442 45.3919 20.3535 44.6961 20.3535C44.0076 20.3535 43.5242 20.8442 43.5242 21.5107C43.5242 22.1699 44.0076 22.6606 44.6961 22.6606Z" fill="white"/>
<path d="M52.7237 28H54.5328V26.0298H55.961V24.4331H54.5328V17.4312H51.8668C49.9991 20.2437 48.5123 22.5947 47.5602 24.3452V26.0298H52.7237V28ZM49.3106 24.3672C50.5411 22.1992 51.6397 20.4634 52.6505 18.9692H52.753V24.4771H49.3106V24.3672Z" fill="white"/>
<path d="M59.9896 28H61.8793V17.4312H59.997L57.2357 19.3647V21.1812L59.8651 19.3354H59.9896V28Z" fill="white"/>
</g>
<defs>
<clipPath id="clip0_200_10374">
<rect width="375" height="44" fill="white"/>
</clipPath>
</defs>
</svg>
