<svg width="20" height="20" viewBox="0 0 20 20" fill="none" xmlns="http://www.w3.org/2000/svg">
<path d="M10.0007 2.4165C10.3458 2.4165 10.6257 2.69633 10.6257 3.0415V10.0223L13.1038 7.8697C13.3644 7.64334 13.7591 7.67109 13.9855 7.93168C14.2118 8.19228 14.1841 8.58703 13.9235 8.81339L11.1379 11.2331C11.0174 11.3377 10.902 11.438 10.7974 11.5157C10.6823 11.6011 10.5442 11.6875 10.3708 11.7385C10.1241 11.8111 9.86167 11.8111 9.61494 11.7385C9.44155 11.6875 9.30342 11.6011 9.18838 11.5157C9.08377 11.438 8.96836 11.3377 8.84788 11.2331L6.06228 8.81339C5.80168 8.58703 5.77393 8.19228 6.00029 7.93168C6.22665 7.67109 6.6214 7.64334 6.882 7.8697L9.37565 10.0358V3.0415C9.37565 2.69633 9.65547 2.4165 10.0007 2.4165Z" fill="white"/>
<path d="M2.70898 8.8665C3.05416 8.8665 3.33398 9.14632 3.33398 9.4915V11.0772C3.33398 12.0876 3.33447 12.8078 3.38057 13.372C3.42607 13.9289 3.51287 14.2785 3.65513 14.5577C3.93761 15.1121 4.38836 15.5629 4.94276 15.8453C5.22196 15.9876 5.57156 16.0744 6.12846 16.1199C6.69265 16.166 7.41286 16.1665 8.42327 16.1665H11.578C12.5884 16.1665 13.3087 16.166 13.8728 16.1199C14.4297 16.0744 14.7793 15.9876 15.0585 15.8453C15.6129 15.5629 16.0637 15.1121 16.3462 14.5577C16.4884 14.2785 16.5752 13.9289 16.6207 13.372C16.6668 12.8078 16.6673 12.0876 16.6673 11.0772V9.4915C16.6673 9.14632 16.9471 8.8665 17.2923 8.8665C17.6375 8.8665 17.9173 9.14632 17.9173 9.4915V11.1049C17.9173 12.0815 17.9173 12.8528 17.8666 13.4738C17.8148 14.108 17.7069 14.6404 17.4599 15.1252C17.0576 15.9148 16.4156 16.5568 15.626 16.9591C15.1412 17.2061 14.6088 17.3139 13.9746 17.3658C13.3536 17.4165 12.5824 17.4165 11.6057 17.4165H8.3956C7.41894 17.4165 6.64771 17.4165 6.02667 17.3658C5.39247 17.3139 4.86005 17.2061 4.37527 16.9591C3.58567 16.5568 2.94369 15.9148 2.54137 15.1252C2.29436 14.6404 2.18653 14.108 2.13472 13.4738C2.08398 12.8528 2.08398 12.0815 2.08398 11.1049V9.4915C2.08398 9.14632 2.36381 8.8665 2.70898 8.8665Z" fill="white"/>
</svg>
